<svg width="568" height="568" xmlns="http://www.w3.org/2000/svg">

 <g>
  <title>background</title>
  <rect fill="none" id="canvas_background" height="570" width="570" y="-1" x="-1"/>
 </g>
 <g>
  <title>Layer 1</title>
  <g id="svg_1">
   <path stroke-width="0" id="svg_2" d="m232.60749,418.04049c-14.649,-7.27 -31.859,-17.321 -50.821,-31.176l-6.018,4.401c-0.399,-0.55 -4.273,-5.939 -9.506,-16.332c-42.288,-34.126 -96.289,-91.07 -148.289,-184.019c-10.2,29.151 -15.809,60.454 -15.809,93.086c0,36.676 7.083,71.683 19.833,103.823c86.057,25.684 156.02,32.371 210.61,30.217z" fill="#000000"/>
   <path stroke-width="0" id="svg_3" d="m418.03849,335.39849c-7.27,14.646 -17.322,31.854 -31.172,50.812l4.4,6.019c-0.55,0.399 -5.937,4.27 -16.329,9.506c-34.119,42.288 -91.07,96.285 -184.022,148.291c29.148,10.2 60.454,15.809 93.083,15.809c36.681,0 71.687,-7.082 103.827,-19.833c25.683,-86.054 32.366,-156.017 30.213,-210.604z" fill="#000000"/>
   <path stroke-width="0" id="svg_4" d="m342.79649,414.97549c-15.566,5.269 -34.934,10.376 -58.342,14.023l-1.13,7.378c-0.675,-0.105 -7.22,-1.176 -18.291,-4.83c-14.905,1.594 -31.624,2.603 -50.231,2.603c-48.883,0 -110.532,-6.883 -184.798,-27.868c29.347,60.848 79.936,109.499 142.126,136.427c79.305,-42.802 133.59,-87.599 170.666,-127.733z" fill="#000000"/>
   <path stroke-width="0" id="svg_5" d="m149.95649,232.59949c7.27,-14.648 17.325,-31.856 31.179,-50.817l-4.401,-6.015c0.55,-0.399 5.937,-4.27 16.329,-9.505c34.119,-42.288 91.07,-96.289 184.023,-148.289c-29.152,-10.199 -60.455,-15.809 -93.088,-15.809c-36.675,0 -71.682,7.083 -103.826,19.833c-25.681,86.047 -32.367,156.016 -30.216,210.602z" fill="#000000"/>
   <path stroke-width="0" id="svg_6" d="m225.52849,152.90949c15.511,-5.229 34.777,-10.292 58.019,-13.913l1.13,-7.374c0.674,0.105 7.214,1.169 18.267,4.82c54.041,-5.776 132.518,-3.69 235.058,25.288c-29.346,-60.851 -79.931,-109.501 -142.114,-136.429c-79.054,42.7 -133.272,87.47 -170.36,127.608z" fill="#000000"/>
   <path stroke-width="0" id="svg_7" d="m153.01749,342.79249c-5.265,-15.563 -10.373,-34.928 -14.021,-58.326l-7.377,-1.143c0.102,-0.675 1.172,-7.217 4.826,-18.278c-5.776,-54.043 -3.687,-132.516 25.288,-235.05c-60.853,29.348 -109.51,79.941 -136.442,142.137c42.803,79.298 87.592,133.587 127.726,170.66z" fill="#000000"/>
   <path stroke-width="0" id="svg_8" d="m414.97249,225.20049c5.272,15.566 10.38,34.938 14.027,58.346l7.378,1.129c-0.105,0.676 -1.176,7.217 -4.823,18.275c5.775,54.043 3.687,132.516 -25.289,235.052c60.854,-29.348 109.512,-79.939 136.442,-142.136c-42.801,-79.302 -87.597,-133.591 -127.735,-170.666z" fill="#000000"/>
   <path stroke-width="0" id="svg_9" d="m335.39949,149.96249c14.653,7.266 31.855,17.318 50.814,31.168l6.012,-4.397c0.403,0.55 4.27,5.937 9.502,16.326c42.292,34.119 96.292,91.066 148.299,184.026c10.2,-29.149 15.809,-60.455 15.809,-93.084c0,-36.679 -7.082,-71.689 -19.833,-103.833c-86.05,-25.678 -156.01,-32.361 -210.603,-30.206z" fill="#000000"/>
   <path stroke-width="0" id="svg_10" d="m193.06349,166.26149c-10.393,5.236 -15.779,9.106 -16.329,9.505l4.401,6.015c0.327,-0.452 0.638,-0.891 0.972,-1.346c3.353,-4.547 7.017,-9.289 10.956,-14.174z" fill="#000000"/>
   <path stroke-width="0" id="svg_11" d="m283.54649,138.99649c0.557,-0.088 1.07,-0.189 1.635,-0.278c5.585,-0.848 11.524,-1.608 17.762,-2.276c-11.053,-3.651 -17.593,-4.715 -18.267,-4.82l-1.13,7.374z" fill="#000000"/>
   <path stroke-width="0" id="svg_12" d="m401.72749,193.05949c-5.232,-10.39 -9.099,-15.776 -9.502,-16.326l-6.012,4.397c0.452,0.328 0.894,0.642 1.35,0.976c4.548,3.353 9.286,7.01 14.164,10.953z" fill="#000000"/>
   <path stroke-width="0" id="svg_13" d="m431.55449,302.95049c3.647,-11.059 4.718,-17.6 4.823,-18.275l-7.378,-1.129c0.089,0.557 0.189,1.07 0.278,1.635c0.846,5.587 1.609,11.527 2.277,17.769z" fill="#000000"/>
   <path stroke-width="0" id="svg_14" d="m374.93749,401.73449c10.393,-5.236 15.779,-9.106 16.329,-9.506l-4.4,-6.019c-0.331,0.455 -0.646,0.896 -0.977,1.353c-3.352,4.548 -7.013,9.289 -10.952,14.172z" fill="#000000"/>
   <path stroke-width="0" id="svg_15" d="m265.03349,431.54649c11.071,3.654 17.616,4.725 18.291,4.83l1.13,-7.378c-0.557,0.089 -1.071,0.189 -1.634,0.278c-5.59,0.847 -11.546,1.605 -17.787,2.27z" fill="#000000"/>
   <path stroke-width="0" id="svg_16" d="m166.26249,374.93349c5.232,10.393 9.106,15.782 9.506,16.332l6.018,-4.401c-0.452,-0.33 -0.894,-0.645 -1.349,-0.976c-4.551,-3.352 -9.293,-7.016 -14.175,-10.955z" fill="#000000"/>
   <path stroke-width="0" id="svg_17" d="m136.44649,265.04549c-3.654,11.061 -4.725,17.603 -4.826,18.278l7.377,1.143c-0.088,-0.563 -0.19,-1.08 -0.278,-1.646c-0.849,-5.591 -1.609,-11.53 -2.273,-17.775z" fill="#000000"/>
  </g>
  <path stroke="#fff" id="svg_22" d="m170.999985,245.690741l74.690742,0l0,-74.690749l76.618523,0l0,74.690749l74.690749,0l0,76.61853l-74.690749,0l0,74.690742l-76.618523,0l0,-74.690742l-74.690742,0l0,-76.61853z" stroke-width="0" fill="#000"/>
 </g>
</svg>