<svg width="250" height="250" xmlns="http://www.w3.org/2000/svg">
 <style type="text/css">.st0{fill:none;stroke:#000000;stroke-width:9;stroke-miterlimit:10;}</style>

 <g>
  <title>background</title>
  <rect fill="none" id="canvas_background" height="252" width="252" y="-1" x="-1"/>
 </g>
 <g>
  <title>Layer 1</title>
  <path id="svg_1" d="m203.940228,205.496436l-31.8,-11c-3.2,-1.1 -6.8,-0.9 -9.8,0.8c-13.9,7.5 -30.2,11.1 -47.5,9.2c-37.1,-4.2 -66.9,-34.3 -70.6,-71.4c-5.1,-50.4 36.5,-92.5 86.6,-88.4c36.5,3 66.8,31.1 72.5,67.2c2.7,16.9 -0.1,33.1 -6.6,47c-1.3,2.7 -1.7,5.8 -0.8,8.7l10.2,35.9c0.3,1.3 -1,2.4 -2.2,2z" class="st0"/>
 </g>
</svg>