<svg width="250" height="250" xmlns="http://www.w3.org/2000/svg">
 <style type="text/css">.st0{stroke:#000000;stroke-width:2;stroke-miterlimit:10;}</style>

 <g>
  <title>background</title>
  <rect x="-1" y="-1" width="252" height="252" id="canvas_background" fill="none"/>
 </g>
 <g>
  <title>Layer 1</title>
  <path stroke-opacity="0" stroke="#82b4b1" fill="#82b4b1" class="st0" d="m213.95,132.6688l0,59.7c0,6.7 -5.5,12.2 -12.2,12.2l-45.5,0c-6.7,0 -12.2,-5.5 -12.2,-12.2l0,-41.9c0,-6.7 -5.5,-12.2 -12.2,-12.2l-13.7,0c-6.7,0 -12.2,5.5 -12.2,12.2l0,41.9c0,6.7 -5.5,12.2 -12.2,12.2l-45.5,0c-6.7,0 -12.2,-5.5 -12.2,-12.2l0,-59.6c0,-3.3 1.3,-6.5 3.7,-8.8l77.7,-75.1c4.8,-4.6 12.4,-4.6 17.1,0.1l75.7,75c2.4,2.3 3.7,5.4 3.7,8.7z" id="svg_1"/>
 </g>
</svg>