<svg width="252" height="252" xmlns="http://www.w3.org/2000/svg">

 <g>
  <title/>
  <rect x="0" y="0" width="252" height="252" id="imagebot_2" fill="none"/>
 </g>
 <g>
  <title/>
  <path fill="#ed4956" stroke-miterlimit="10" stroke-width="9" stroke="#ed4956" d="M 76.62069 51.93476 C 95.72069 48.43476 111.62069 54.63476 123.62069 70.93476 C 125.72069 73.73476 126.32069 73.73476 128.32069 70.93476 C 144.22069 48.63476 174.32069 44.43476 195.32069 61.43476 C 217.72069 79.73476 219.52069 115.23476 198.72069 135.43476 C 190.62069 143.33476 181.92069 150.43476 173.52069 157.93476 C 158.72069 170.93476 143.92069 183.73476 129.12069 196.73476 C 122.62069 202.43476 122.72069 202.53476 116.52069 196.43476 C 97.02069 177.53476 77.52069 158.43476 57.82069 139.73476 C 50.52069 132.83476 44.52069 125.43476 41.22069 115.63476 C 39.52069 110.53476 39.02069 105.23476 38.72069 100.93476 C 38.82069 76.43476 54.62069 55.93476 76.62069 51.93476 z" id="imagebot_1"/>
 </g>
</svg>