<svg width="250" height="250" xmlns="http://www.w3.org/2000/svg">
 <style type="text/css">.st0{fill:none;stroke:#000000;stroke-width:9;stroke-miterlimit:10;}</style>

 <g>
  <title>background</title>
  <rect fill="none" id="canvas_background" height="252" width="252" y="-1" x="-1"/>
 </g>
 <g>
  <title>Layer 1</title>
  <path id="svg_1" d="m75.620688,50.934757c19.1,-3.5 35,2.7 47,19c2.1,2.8 2.7,2.8 4.7,0c15.9,-22.3 46,-26.5 67,-9.5c22.4,18.3 24.2,53.8 3.4,74c-8.1,7.9 -16.8,15 -25.2,22.5c-14.8,13 -29.6,25.8 -44.4,38.8c-6.5,5.7 -6.4,5.8 -12.6,-0.3c-19.5,-18.9 -39,-38 -58.7,-56.7c-7.3,-6.9 -13.3,-14.3 -16.6,-24.1c-1.7,-5.1 -2.2,-10.4 -2.5,-14.7c0.1,-24.5 15.9,-45 37.9,-49z" class="st0"/>
 </g>
</svg>