<svg width="250" height="250" xmlns="http://www.w3.org/2000/svg">

 <g>
  <title>background</title>
  <rect fill="none" id="canvas_background" height="252" width="252" y="-1" x="-1"/>
 </g>
 <g>
  <title>Layer 1</title>
  <g stroke="null" id="svg_1">
   <path stroke="null" id="svg_2" d="m197.049441,126.177528c0,-1.453979 -0.132006,-2.873522 -0.218097,-4.304543l14.069159,-2.479417l-2.85439,-16.219518l-14.017505,2.469851c-3.269539,-10.969888 -9.10076,-20.820596 -16.776238,-28.926528l9.190677,-10.954583l-12.617093,-10.587262l-9.158154,10.916321c-9.221287,-6.108625 -19.917598,-10.13959 -31.434642,-11.457737l0,-14.229862l-16.468224,0l0,14.231775c-11.517044,1.318147 -22.211441,5.349112 -31.430815,11.455823l-9.156241,-10.914408l-12.617093,10.587262l9.188764,10.95267c-7.677391,8.105933 -13.508612,17.95664 -16.778152,28.928441l-14.009852,-2.469851l-2.862043,16.219518l14.069159,2.479417c-0.086091,1.432934 -0.218097,2.852477 -0.218097,4.304543c0,10.177852 2.148445,19.856378 5.972792,28.643385l-12.320558,7.113018l8.234112,14.260472l12.389431,-7.151281c6.713174,9.024235 15.458092,16.414657 25.588116,21.50167l-4.882308,13.416782l15.471484,5.632255l4.878482,-13.405303c5.375896,1.28371 10.956496,2.037484 16.720758,2.037484c5.766174,0 11.346775,-0.753773 16.724584,-2.039397l4.878482,13.405303l15.471484,-5.632255l-4.884221,-13.416782c10.128111,-5.087013 18.873029,-12.477435 25.586203,-21.50167l12.391344,7.153194l8.234112,-14.260472l-12.324385,-7.114931c3.820521,-8.78892 5.968966,-18.465532 5.968966,-28.643385zm-72.050395,55.582171c-30.650258,0 -55.582171,-24.933825 -55.582171,-55.582171s24.931912,-55.582171 55.582171,-55.582171s55.582171,24.933825 55.582171,55.582171s-24.931912,55.582171 -55.582171,55.582171z"/>
  </g>
 </g>
</svg>