<svg width="250" height="250" xmlns="http://www.w3.org/2000/svg">

 <g>
  <title>background</title>
  <rect fill="none" id="canvas_background" height="252" width="252" y="-1" x="-1"/>
 </g>
 <g>
  <title>Layer 1</title>
  <path stroke="null" id="svg_1" d="m219.16063,49.016374c-0.791496,-1.97874 -3.165984,-3.165984 -5.144724,-3.165984l-178.086611,0c-2.374488,0 -4.748976,1.582992 -5.540472,3.561732c-0.791496,2.374488 -0.395748,4.748976 1.187244,6.331968l60.1537,60.1537l21.370393,83.898581c0.395748,2.374488 2.374488,3.95748 4.748976,4.353228c0.395748,0 0.791496,0 0.791496,0c1.97874,0 3.95748,-1.187244 5.144724,-2.770236l94.979526,-146.426769c1.582992,-1.582992 1.582992,-3.95748 0.395748,-5.93622zm-30.868346,8.706457l-89.834801,48.281259l-48.281259,-48.281259l138.11606,0zm-66.881416,125.847872l-17.412913,-67.277164l93.396534,-50.259999l-75.983621,117.537163z"/>
 </g>
</svg>