<svg width="250" height="250" xmlns="http://www.w3.org/2000/svg">
 <style type="text/css">.st0{fill:none;stroke:#000000;stroke-width:9;stroke-miterlimit:10;}</style>

 <g>
  <title>background</title>
  <rect fill="none" id="canvas_background" height="252" width="252" y="-1" x="-1"/>
 </g>
 <g>
  <title>Layer 1</title>
  <path id="svg_1" d="m169.000002,132.400003c0,24.3 -19.7,44 -44,44s-44,-19.7 -44,-44s19.7,-44 44,-44s44,19.7 44,44zm-136,47c0,14.5 11.8,26.3 26.3,26.3l131.5,0c14.5,0 26.3,-11.8 26.3,-26.3l0,-85.8c0,-14.5 -11.8,-26.3 -26.3,-26.3l-7.4,0c-7.8,0 -15.3,-3.5 -20.3,-9.6l-5.6,-6.8c-3.5,-4.2 -8.6,-6.6 -14,-6.6l-26.6,0l16.3,0l-26.5,0c-5.4,0 -10.6,2.4 -14.1,6.6l-5.7,6.9c-5,6.1 -12.4,9.6 -20.3,9.6l-7.4,0c-14.5,0 -26.3,11.8 -26.3,26.3l0,85.7c0,14.5 11.8,26.3 26.3,26.3l131.5,0c14.5,0 26.3,-11.8 26.3,-26.3" class="st0"/>
 </g>
</svg>