<svg width="66" height="71" xmlns="http://www.w3.org/2000/svg">

 <g>
  <title>background</title>
  <rect fill="none" id="canvas_background" height="73" width="68" y="-1" x="-1"/>
 </g>
 <g>
  <title>Layer 1</title>
  <g id="svg_1">
   <path id="svg_2" d="m48.3,29.250002c1.2,-2.5 1.9,-5.4 1.9,-8.5c0,-10.2 -7.7,-18.6 -17.2,-18.6s-17.2,8.3 -17.2,18.6c0,3.1 0.7,5.9 1.9,8.5c-9,2 -15.7,10.1 -15.7,19.8l0,10.8c0,5 4,9 9,9l44,0c5,0 9,-4 9,-9l0,-10.9c0,-9.7 -6.7,-17.8 -15.7,-19.7zm-15.3,-21.1c6.2,0 11.2,5.6 11.2,12.6s-5,12.6 -11.2,12.6s-11.2,-5.6 -11.2,-12.6s5,-12.6 11.2,-12.6zm25,51.6c0,1.7 -1.3,3 -3,3l-44,0c-1.7,0 -3,-1.3 -3,-3l0,-10.8c0,-7.8 6.1,-14.1 13.7,-14.2c3,2.8 7,4.5 11.3,4.5s8.2,-1.7 11.3,-4.5c7.6,0.1 13.7,6.4 13.7,14.2l0,10.8z"/>
  </g>
 </g>
</svg>